<svg viewBox="0 0 50 50" xmlns="http://www.w3.org/2000/svg"><g fill="none" fill-rule="evenodd"><path d="M6 0h38a6 6 0 0 1 6 6v38a6 6 0 0 1-6 6H6a6 6 0 0 1-6-6V6a6 6 0 0 1 6-6Z" fill="#00bbe9" class="fill-050505"></path><path d="M23.96 5.098c.639-.221 1.336-.037 1.92.251.41.263.818.529 1.276.701l.142.26-.07.176c.325.742.534 1.62.217 2.399-.215.263-.59.303-.894.405-.001.376.059.749.091 1.122.65.105 1.2-.347 1.842-.302.086-.36.155-.725.27-1.077.133.233.138.502.14.765.168.048.339.09.51.133.002.064.003.193.003.257 2.816.017 5.63-.013 8.446.016l-.026.386.295.001c-.003-.512 0-1.025-.002-1.537l.282-.008c.001.402.003.805.007 1.208l.246.302.185-.217c.214.2.092.474.083.72.787-.008 1.583.045 2.369-.02l.235-.171.325.127c.354-.009.71-.01 1.065-.011-.008.183-.013.366-.02.55-.458-.008-.917-.017-1.367.06-.292-.25-.682-.17-1.033-.18-.54.026-1.098-.07-1.62.103-.312.086-.653.065-.927-.111-.066.164.035.53-.241.516-1.086.014-2.17-.01-3.255.007-.149.078-.299.153-.447.225-.156.467-.606.779-.988 1.064-.048.718.237 1.388.347 2.084-.214.061-.43.125-.64.194-.305.717-.118 1.694-.82 2.194-.54.313-.896.994-1.623.886.37.308-.1.211-.052-.035-1.314-.116-2.42-.886-3.563-1.474a9.282 9.282 0 0 1-.224.953c.434.082.792.401.87.846.138.97-.14 1.932-.135 2.903.03.571-.214 1.094-.52 1.56-.266.302-.688-.009-1.008-.054-.073.142-.144.283-.214.426.09.38.13.776.257 1.148.715.79 1.366 1.646 1.866 2.59.514 1.069.972 2.164 1.373 3.28.039.218.243.296.423.374l.07.674c.07.102.14.204.214.308.043 1.379-.126 2.752-.34 4.113-.133.614.226 1.214.08 1.832.017.316-.2.555-.303.835-.02.653-.052 1.315.02 1.967.05.478.454.785.729 1.142.3.318.55.744 1.003.857a4.73 4.73 0 0 1 1.21.554c.115.284.094.585.04.88-.82.151-1.657.076-2.486.088-.638.034-1.208-.309-1.828-.38-.6-.015-1.332.282-1.794-.255.196-.745.212-1.545.57-2.24.114-.788-.104-1.586-.058-2.38l-.274-.23c.05-.52-.207-.98-.293-1.477a55.714 55.714 0 0 0-.205-2.17c-.066-.352.116-.673.364-.907.022-.405.077-.807.116-1.21-.06-.261-.269-.456-.403-.68-.45.19-1.055.1-1.323-.34-.634-.942-1.266-1.884-1.907-2.822-.252-.016-.518.01-.753-.09-.271-.279-.413-.65-.586-.988-.248.279-.23.705-.524.958-.621.596-.786 1.472-1.11 2.235-.25.495-.11 1.092-.387 1.575-.148.26-.52.312-.619.608-.128.32-.28.652-.58.847-.327.213-.413.62-.559.955-.133.309.065.633.019.95-.208 1.01-.85 1.852-1.12 2.84-.123.445-.3.945-.817 1.04-.59 1.052-.914 2.339-.581 3.523.204.372.193.79.13 1.2-.936.073-1.896.199-2.815-.063-.216-.427-.185-.929-.14-1.39.284-1.213.66-2.404.89-3.63-.287-.255-.22-.646-.215-.99-.01-.638.426-1.15.728-1.675.114-.538.06-1.117.339-1.61.327-.619.604-1.287 1.11-1.787.096-.44.421-.773.552-1.197.14-.375-.105-.755-.055-1.138.12-1.163.331-2.314.515-3.468-.347-.29-.235-.75-.346-1.14.055-.153.123-.3.206-.443l-.26-.24c.085-.41.061-1.145.69-1.011.04-1.358-.432-2.673-.274-4.032.084.097.167.197.251.296l-.045-.46c.263-.14.543-.248.837-.302-.479-.063-.945-.185-1.414-.294-.113-.298-.05-.615-.008-.92.182-1.03.249-2.073.287-3.116.53-.184 1.115-.028 1.633-.274-.16-1.305-.201-2.667.263-3.919.374-1.066 1.088-2.094 2.201-2.468.527-.126 1.189-.267 1.56.243l.307-.284c-.85-1.686.165-4.149 2.093-4.495Zm6.798 7.311c-.224.137-.444.294-.208.543-.115.068-.23.134-.346.197-.182.14-.591.22-.543.502.204.328.38.673.526 1.03a3.92 3.92 0 0 0 1.042-1.38l.203-.205a2.32 2.32 0 0 0-.169-.694c-.168.003-.337.006-.505.007Z" fill="#FFFFFF" fill-rule="nonzero" class="fill-ffffff"></path></g></svg>